<?xml version="1.0" encoding="UTF-8"?>
<svg id="Calque_1" xmlns="http://www.w3.org/2000/svg" version="1.1" viewBox="0 0 640 640">
  <!-- Generator: Adobe Illustrator 30.0.0, SVG Export Plug-In . SVG Version: 2.1.1 Build 123)  -->
  <path d="M403.1,230.6c5.2-7.1,15.2-8.7,22.3-3.5,7.1,5.2,8.7,15.2,3.5,22.3l-128,176c-2.8,3.8-7,6.2-11.7,6.5-4.7.3-9.3-1.3-12.6-4.6l-64-64c-6.2-6.2-6.2-16.4,0-22.6,6.2-6.2,16.4-6.2,22.6,0l50.8,50.7,117-160.8h.1Z"/>
  <path d="M559.5,413.3l-1.7-193.6c-.2-25.8-14.3-49.5-36.8-62.1l-167.1-93.7c-22.5-12.6-50.1-12.3-72.3,1.1l-166.1,99.5c-21.9,13.1-35.2,36.8-35,62.4l1.7,193.7c.2,25.8,14.3,49.5,36.8,62.1l167.1,93.7c22.5,12.6,50.1,12.3,72.2-1l166.2-99.6c21.9-13.1,35.2-36.8,35-62.4ZM508,448.3l-166.1,99.5c-12.3,7.4-27.7,7.6-40.1.6l-167.1-93.7c-12.5-7-20.3-20.2-20.4-34.6l-1.7-193.6c0-14.2,7.3-27.3,19.4-34.6l166.1-99.6c12.3-7.3,27.6-7.6,40.1-.6l167.1,93.7c12.6,7,20.3,20.2,20.4,34.5l1.7,193.7c0,14.2-7.3,27.3-19.4,34.6Z"/>
</svg>