<svg width="16" height="16" viewBox="0 0 16 16" fill="none" xmlns="http://www.w3.org/2000/svg">
<path d="M5.00412 0.781673C4.75723 0.191016 4.11344 -0.121501 3.50091 0.0441326L3.32902 0.0910101C1.31016 0.64104 -0.41493 2.5974 0.0882227 4.97878C1.24766 10.4478 5.55102 14.7512 11.0201 15.9106C13.4046 16.4169 15.3578 14.6887 15.9078 12.6698L15.9547 12.4979C16.1235 11.8823 15.8078 11.2385 15.2203 10.9947L12.1795 9.72904C11.6639 9.5134 11.0669 9.66341 10.7107 10.0978L9.50436 11.5729C7.30737 10.4822 5.53852 8.6571 4.52284 6.41636L5.90417 5.29129C6.33856 4.93815 6.48545 4.34124 6.27293 3.82246L5.00412 0.781673Z" fill="#007582"/>
</svg>
