<svg width="21" height="20" viewBox="0 0 21 20" fill="none" xmlns="http://www.w3.org/2000/svg">
<path d="M16.4121 16.2734C15.8545 14.1055 13.8553 12.5 11.4697 12.5H8.9209C6.53535 12.5 4.53612 14.1055 3.97856 16.2734C2.30988 14.6836 1.27441 12.4609 1.27441 10C1.27441 5.16797 5.26891 1.25 10.1953 1.25C15.1217 1.25 19.1162 5.16797 19.1162 10C19.1162 12.4609 18.0807 14.6836 16.4121 16.2734ZM15.277 17.1875C13.8393 18.1719 12.083 18.75 10.1953 18.75C8.30759 18.75 6.55128 18.1719 5.1096 17.1914C5.26891 15.2656 6.9137 13.75 8.9209 13.75H11.4697C13.4769 13.75 15.1177 15.2656 15.281 17.1914L15.277 17.1875ZM10.1953 20C15.8266 20 20.3906 15.5234 20.3906 10C20.3906 4.47656 15.8266 0 10.1953 0C4.564 0 0 4.47656 0 10C0 15.5234 4.564 20 10.1953 20ZM10.1953 9.375C9.13994 9.375 8.28369 8.53516 8.28369 7.5C8.28369 6.46484 9.13994 5.625 10.1953 5.625C11.2507 5.625 12.1069 6.46484 12.1069 7.5C12.1069 8.53516 11.2507 9.375 10.1953 9.375ZM7.00928 7.5C7.00928 9.22656 8.43503 10.625 10.1953 10.625C11.9556 10.625 13.3813 9.22656 13.3813 7.5C13.3813 5.77344 11.9556 4.375 10.1953 4.375C8.43503 4.375 7.00928 5.77344 7.00928 7.5Z" fill="white"/>
</svg>
